<?xml version="1.0" encoding="utf-8" ?>
<svg xmlns="http://www.w3.org/2000/svg" xmlns:xlink="http://www.w3.org/1999/xlink" width="1024" height="1024">
	<path fill="#142418" d="M534.489 180.005C534.72 175.673 535.097 171.349 535.618 167.041C540.581 126.695 562.329 81.4126 594.772 56.2313C606.898 46.8198 621.107 40.4203 636.742 42.4753C650.763 44.3181 661.99 52.1857 670.407 63.3065C677.477 72.6457 682.884 87.0491 681.027 98.8927C678.744 113.443 664.032 111.565 653.299 114.288C647.016 115.881 640.784 119.015 635.566 122.836C617.397 136.142 608.389 158.405 605.015 179.962C613.776 180.829 622.431 181.043 631.168 182.364C658.234 186.456 680.937 199.451 700.51 218.172C709.02 226.311 716.778 235.166 725.781 242.798C740.354 255.154 758.703 263.391 777.69 256.498C781.829 254.996 787.457 251.172 791.686 250.82C792.656 251.506 792.982 251.986 793.246 253.171C794.901 260.607 788.738 274.332 784.604 280.352C774.669 294.814 761.229 301.337 744.367 304.366C779.387 350.186 809.717 432.627 818.703 489.171C823.585 487.868 828.557 486.892 833.497 485.839C830.099 474.218 828.675 461.217 830.191 449.178C832.287 432.543 840.203 416.708 853.648 406.371C861.634 400.231 871.101 397.081 881.186 398.551C889.14 399.71 897.123 403.969 901.793 410.633C912.477 425.878 901.405 444.569 898.795 460.429C897.031 471.147 897 485.17 905.209 493.345C910.027 498.144 915.011 501.824 919.026 507.437C932.42 526.16 936.334 554.667 932.532 577.123C934.89 581.05 936.809 585.224 938.253 589.571C944.161 607.206 942.089 627.135 933.749 643.651C927.886 655.261 918.482 666.079 906.601 671.777C901.825 674.068 896.624 675.749 891.985 678.277C883.46 682.924 881.369 687.085 870.734 690.484C850.528 696.944 826.615 692.671 808.131 683.065C807.042 685.927 805.784 688.74 804.481 691.512C779.016 745.705 734.93 790.429 678.069 810.984L684.453 844.022C693.049 844.286 702.324 845.583 708.724 851.928C714.947 858.097 715.494 865.654 715.414 873.884C724.792 874.63 734.812 878.156 742.966 882.785C760.426 892.696 769.911 908.091 775.147 927.003C789.072 929.182 825.293 933.133 833.155 944.693C833.751 945.57 833.989 946.642 833.737 947.683C832.931 951.009 828.293 953.217 825.446 954.545C811.535 961.039 771.349 970.423 756.168 969.819C748.944 970.393 741.814 972.489 734.63 973.516C723.804 975.064 712.946 975.135 702.035 975.234C700.908 975.587 699.765 975.835 698.605 976.053C687.436 978.148 675.668 978.63 664.344 979.338C644.586 980.671 624.793 981.408 604.99 981.549C552.032 982.28 499.339 981.648 446.513 977.37C413.956 974.733 382.042 971.107 350.082 964.15C339.086 961.756 323.264 958.954 314.13 952.351C312.365 951.075 310.606 949.309 310.436 947.01C310.328 945.547 310.935 944.195 311.796 943.055C318.731 933.879 347.386 929.637 358.855 927.677C358.941 923.312 359.094 919.045 359.94 914.746C363.138 898.488 373.775 884.493 387.494 875.502C406.549 863.013 427.843 862.385 449.502 866.944C449.595 861.447 450.686 856.209 454.14 851.755C459.567 844.756 467.719 842.947 475.977 841.794C473.791 832.125 473.873 821.387 472.694 811.505C413.661 787.551 373.018 747.376 347.098 689.346C337.905 696.711 327.861 702.043 315.936 702.872C301.467 703.877 287.672 699.653 276.672 690.146C264.968 691.733 253.786 693.695 242.487 689.003C231.188 684.311 224.973 675.198 220.522 664.209C208.968 658.015 199.98 649.487 191.565 639.587C181.89 637.614 172.376 634.885 164.038 629.424C152.516 621.876 148.16 612.2 145.412 599.089L129.881 600.556C119.212 601.504 102.092 604.439 93.4236 596.835C90.1021 593.921 89.4671 589.571 88.8281 585.383C87.237 574.955 87.1893 564.094 86.4521 553.568L82.343 497.77L70.0385 338.193C69.3856 329.69 65.6103 301.324 70.8297 295.584C73.3573 292.804 76.4226 291.197 80.0832 290.483C89.7676 288.593 99.9183 288.321 109.755 287.645L153.645 284.494L315.914 271.911C323.542 271.356 333.946 269.893 340.087 275.505C343.071 278.232 344.842 282.027 345.642 285.939C347.158 293.349 347.092 301.507 347.562 309.052L350.065 345.745C352.497 380.296 356.044 414.801 357.738 449.402C368.031 403.985 386.673 355.066 409.64 314.618C394.679 313.205 381.7 312.486 369.845 302.057C364.621 297.461 357.948 288.946 357.829 281.687C357.808 280.392 358.008 279.393 358.9 278.415C362.219 276.942 369.129 278.111 372.843 278.068C412.757 277.607 423.047 243.136 446.822 218.77C470.428 194.578 500.512 180.442 534.489 180.005ZM513.193 843.252C518.613 844.618 524.141 845.595 529.256 847.943C535.172 850.66 540.45 855.333 542.61 861.617C545.071 868.775 542.91 875.512 539.873 882.031C544.56 893.02 546.852 903.401 548.909 915.089C570.152 914.065 591.431 914 612.679 914.894C615.807 915.02 620.032 914.484 622.967 915.333C624.176 905.802 626.396 897.743 630.01 888.89C627.132 885.962 624.616 882.478 623.252 878.584C621.362 873.115 621.828 867.107 624.54 861.996C628.984 853.662 637.255 850.896 645.603 848.216C643.798 839.665 642.591 830.998 640.796 822.443C598.915 831.343 553.839 832.072 511.93 823.125C511.96 829.83 512.598 836.574 513.193 843.252Z"/>
	<path fill="#C0BCA9" d="M548.909 915.089C570.152 914.065 591.431 914 612.679 914.894C615.807 915.02 620.032 914.484 622.967 915.333C622.69 927.994 619.92 944.68 629.684 954.575C641.652 966.703 667.934 971.957 684.554 973.731C690.273 974.342 696.441 974.09 702.035 975.234C700.908 975.587 699.765 975.835 698.605 976.053C687.436 978.148 675.668 978.63 664.344 979.338C644.586 980.671 624.793 981.408 604.99 981.549C552.032 982.28 499.339 981.648 446.513 977.37C413.956 974.733 382.042 971.107 350.082 964.15C339.086 961.756 323.264 958.954 314.13 952.351C312.365 951.075 310.606 949.309 310.436 947.01C310.328 945.547 310.935 944.195 311.796 943.055C318.731 933.879 347.386 929.637 358.855 927.677C358.744 929.932 358.647 932.188 358.563 934.445C358.347 940.479 358.608 946.301 363.085 950.886C377.282 965.424 418.886 966.589 438.514 966.364C465.712 966.2 492.782 962.637 519.096 955.758C527.387 953.639 538.667 951.346 544.684 944.806C551.227 937.694 549.48 923.986 548.909 915.089Z"/>
	<path fill="#C0BCA9" d="M775.147 927.003C789.072 929.182 825.293 933.133 833.155 944.693C833.751 945.57 833.989 946.642 833.737 947.683C832.931 951.009 828.293 953.217 825.446 954.545C811.535 961.039 771.349 970.423 756.168 969.819C756.217 969.613 756.182 969.364 756.317 969.201C756.705 968.73 768.042 965.408 772.11 960.781C779.191 952.73 776.009 936.739 775.147 927.003Z"/>
	<path fill="#4B7532" d="M592.36 284.24C592.486 284.3 592.612 284.359 592.737 284.421L593.359 284.736C598.686 287.389 603.433 291.194 608.451 294.388C636.268 311.7 662.633 330.318 696.354 334.114C701.076 334.453 708.7 335.741 712.5 332.158C713.947 330.794 714.377 328.956 714.354 327.031C714.308 323.193 712.653 318.923 711.685 315.202C710.391 310.228 709.461 305.586 709.139 300.454C714.201 302.5 719.837 304.458 724.065 308.026C728.581 311.837 731.872 317.108 735.279 321.881C749.603 341.945 761.228 362.673 770.851 385.39C785.972 420.564 796.62 457.495 802.545 495.32C791.898 503.474 783.224 513.765 781.408 527.469C780.231 536.353 781.79 544.76 784.577 553.183C780.751 565.549 779.072 576.493 785.353 588.389C786.475 590.529 787.682 592.624 788.97 594.668C788.185 599.11 788.011 604.083 786.857 608.384C788.056 616.422 790.3 622.163 794.433 629.131C793.248 632.364 792.965 635.142 792.8 638.541C787.637 634.757 782.965 630.343 778.312 625.962C772.747 622.62 763.56 609.885 761.359 603.904C758.212 600.263 755.216 596.639 750.033 596.341C746.884 596.16 744.618 597 742.288 599.113C739.61 601.541 738.286 605.263 738.147 608.819C737.734 619.373 747.624 629.891 753.689 637.759C758.288 643.175 762.944 648.468 768.079 653.386C772.027 657.167 777.36 660.999 780.585 665.343C784.892 668.536 789.154 671.826 793.645 674.756C788.138 686.784 782.406 698.689 775.412 709.937C751.673 748.718 715.735 778.525 673.233 794.683L669.004 796.253C659.539 801.078 649.057 803.301 638.74 805.546C600.981 814.007 561.895 814.709 523.856 807.608C514.952 805.991 506.019 804.257 497.389 801.49C495.489 800.88 493.674 800.202 491.887 799.306C475.928 794.001 452.18 785.983 439.511 774.843C430.515 770.378 422.161 762.751 414.907 755.863C383.129 727.948 362.411 688.863 353.189 647.905C348.382 626.195 346.514 603.936 347.637 581.728C350.992 503.819 386.806 387.008 428.557 320.969C432.802 321.319 436.732 321.358 440.965 320.769C442.549 326.076 436.843 333.214 435.637 338.46C437.423 337.315 439.182 336.102 441.031 335.061C452.031 328.872 463.178 330.364 474.817 333.7C476.732 329.726 485.42 300.774 484.409 297.731C486.884 295.592 489.38 293.542 491.996 291.577C495.483 298.821 499.053 305.946 503.181 312.849C505.729 317.108 508.786 321.206 511.168 325.531C520.365 334.051 533.139 348.604 543.306 355.032C550.225 331.175 560.719 327.517 575.75 309.92C582.446 302.08 587.412 293.225 592.36 284.24Z"/>
	<path fill="#7B9B34" d="M491.996 291.577C495.483 298.821 499.053 305.946 503.181 312.849C505.729 317.108 508.786 321.206 511.168 325.531C512.386 330.936 516.268 335.011 520.024 338.838C520.006 352.49 517.849 365.748 516.32 379.276C514.147 397.456 512.746 415.72 512.12 434.019C511.936 444.172 511.977 454.328 512.244 464.479C512.538 475.71 515.409 513.253 512.814 520.898L512.93 522.858C515.488 526.046 514.194 561.218 513.522 566.694C513.374 567.895 513.421 568.508 512.693 569.486C511.368 569.818 510.248 569.777 508.904 569.706C495.195 568.759 481.307 567.007 468.283 562.413C462.265 560.291 456.631 555.95 450.293 554.965C449.374 554.822 448.766 554.883 447.908 555.282C446.999 556.313 446.973 556.372 446.846 557.741C448.861 563.376 455.88 567.966 460.692 571.191C457.884 580.58 459.323 593.789 459.605 603.646C461.163 658.143 468.903 709.482 490.901 759.678C477.353 756.436 464.982 750.066 452.422 744.236C458.745 757.299 467.406 769.585 476.506 780.857C481.278 786.766 488.822 792.362 491.887 799.306C475.928 794.001 452.18 785.983 439.511 774.843C430.515 770.378 422.161 762.751 414.907 755.863C383.129 727.948 362.411 688.863 353.189 647.905C348.382 626.195 346.514 603.936 347.637 581.728C350.992 503.819 386.806 387.008 428.557 320.969C432.802 321.319 436.732 321.358 440.965 320.769C442.549 326.076 436.843 333.214 435.637 338.46C437.423 337.315 439.182 336.102 441.031 335.061C452.031 328.872 463.178 330.364 474.817 333.7C476.732 329.726 485.42 300.774 484.409 297.731C486.884 295.592 489.38 293.542 491.996 291.577Z"/>
	<path fill="#55802F" d="M490.478 515.862C498.779 516.12 505.285 520.354 512.93 522.858C515.488 526.046 514.194 561.218 513.522 566.694C513.374 567.895 513.421 568.508 512.693 569.486C511.368 569.818 510.248 569.777 508.904 569.706C495.195 568.759 481.307 567.007 468.283 562.413C462.265 560.291 456.631 555.95 450.293 554.965C449.374 554.822 448.766 554.883 447.908 555.282C446.999 556.313 446.973 556.372 446.846 557.741C448.861 563.376 455.88 567.966 460.692 571.191C457.884 580.58 459.323 593.789 459.605 603.646C461.163 658.143 468.903 709.482 490.901 759.678C477.353 756.436 464.982 750.066 452.422 744.236C458.745 757.299 467.406 769.585 476.506 780.857C481.278 786.766 488.822 792.362 491.887 799.306C475.928 794.001 452.18 785.983 439.511 774.843C439.004 770.071 428.946 759.931 425.759 755.826C410.328 735.952 395.557 710.061 396.486 684.246L397.215 684.915C402.18 689.432 404.206 695.398 407.626 701.002C418.214 718.35 433.567 734.116 451.898 743.178C449.432 736.185 446.099 729.513 443.389 722.613C439.259 711.803 435.623 700.812 432.493 689.672C420.005 645.237 418.423 599.159 422.745 553.426C423.822 542.028 424.582 530.723 427.45 519.6C439.633 525.39 449.252 527.8 462.538 524.369C462.455 531.927 462.803 538.469 468.504 544.174C472.036 547.708 481.256 552.637 486.414 552.309C486.616 552.297 486.813 552.243 487.013 552.209C487.487 551.326 487.505 551.696 487.199 550.776C486.144 547.609 479.453 543.105 476.984 538.472C480.518 533.431 482.994 527.669 485.135 521.927C485.367 520.026 485.733 518.368 485.028 516.544C486.816 516.184 488.666 516.056 490.478 515.862Z"/>
	<path fill="#9DB84F" d="M485.028 516.544C486.816 516.184 488.666 516.056 490.478 515.862C490.191 517.752 489.918 519.343 488.326 520.574C487.341 521.335 486.325 521.634 485.135 521.927C485.367 520.026 485.733 518.368 485.028 516.544Z"/>
	<path fill="#142418" d="M427.45 519.6C411.697 505.608 405.539 489.743 404.235 468.892C402.778 445.612 407.917 421.161 423.681 403.278C432.435 393.348 444.951 385.811 458.36 384.973C469.134 384.3 479.246 387.438 487.368 394.627C500.658 406.389 505.903 424.381 506.862 441.581C508.128 464.283 502.981 490.083 487.551 507.49C497.288 508.312 503.732 509.764 510.298 517.534C511.211 518.613 512.033 519.718 512.814 520.898L512.93 522.858C505.285 520.354 498.779 516.12 490.478 515.862C488.666 516.056 486.816 516.184 485.028 516.544C485.733 518.368 485.367 520.026 485.135 521.927C482.994 527.669 480.518 533.431 476.984 538.472C479.453 543.105 486.144 547.609 487.199 550.776C487.505 551.696 487.487 551.326 487.013 552.209C486.813 552.243 486.616 552.297 486.414 552.309C481.256 552.637 472.036 547.708 468.504 544.174C462.803 538.469 462.455 531.927 462.538 524.369C449.252 527.8 439.633 525.39 427.45 519.6Z"/>
	<path fill="#BFD175" d="M485.028 516.544C485.733 518.368 485.367 520.026 485.135 521.927C482.994 527.669 480.518 533.431 476.984 538.472C475.356 533.654 473.772 528.675 476.046 523.74C477.826 519.874 481.236 518.01 485.028 516.544Z"/>
	<path fill="#F9E9D1" d="M457.544 398.618C462.129 398.056 466.673 398.489 470.968 400.271C480.772 404.337 487.263 414.335 491.069 423.82C496.86 438.251 498.955 459.337 492.754 473.958C493.762 464.61 494.706 454.823 492.639 445.548C491.087 438.587 487.691 431.132 481.377 427.311C477.411 424.911 472.595 424.461 468.153 425.635C461.164 427.482 455.815 433.046 452.298 439.139C444.574 452.521 444.473 468.977 448.365 483.549C449.868 488.102 452.225 492.81 455.585 496.256C460.657 501.459 466.718 502.418 473.611 502.572C470.029 506.964 466.778 511.621 463.46 516.213C453.473 517.098 443.855 517.634 435.113 511.852C425.304 505.364 420.183 494.071 417.883 482.886C413.568 461.897 417.033 437.046 429.028 419.041C436.099 408.427 444.926 401.219 457.544 398.618Z"/>
	<path fill="#F9E9D1" d="M478.01 434.972C480.563 434.943 482.867 435.485 484.706 437.401C486.441 439.208 486.936 441.831 486.731 444.255C486.364 448.594 484.415 451.357 481.221 454.133C480.813 454.142 480.404 454.144 479.995 454.136C477.622 454.086 475.559 453.237 473.98 451.41C472.251 449.409 471.832 446.525 472.177 443.979C472.754 439.717 474.634 437.44 478.01 434.972Z"/>
	<path fill="#BFD175" d="M428.557 320.969C432.802 321.319 436.732 321.358 440.965 320.769C442.549 326.076 436.843 333.214 435.637 338.46C428.676 346.726 422.118 356.005 420.099 366.853C416.586 372.585 414.495 379.91 412.189 386.222C408.413 396.484 404.719 406.774 401.105 417.094C394.563 436.244 388.688 455.617 383.493 475.176C379.933 488.124 376.281 501.047 373.44 514.177C362.847 563.123 359.768 615.293 371.517 664.324C376.545 685.311 384.965 709.039 396.539 727.219C400.906 734.079 406.268 740.332 410.82 747.079C412.273 749.232 415.798 753.33 414.907 755.863C383.129 727.948 362.411 688.863 353.189 647.905C348.382 626.195 346.514 603.936 347.637 581.728C350.992 503.819 386.806 387.008 428.557 320.969Z"/>
	<path fill="#142418" d="M435.637 338.46C437.423 337.315 439.182 336.102 441.031 335.061C452.031 328.872 463.178 330.364 474.817 333.7C482.335 337.218 488.527 342.654 491.536 350.559C492.758 353.77 493.487 357.404 491.891 360.62C491.236 361.94 490.375 362.836 489.313 363.836C479.601 365.19 466.49 358.634 454.63 361.432C450.335 362.475 446.146 363.91 442.115 365.721C438.2 367.476 425.439 375.803 422.118 375.301C420.327 373 420.344 369.665 420.099 366.853C422.118 356.005 428.676 346.726 435.637 338.46Z"/>
	<path fill="#9DB84F" d="M398.202 531.93C399.096 531.977 400.039 532.009 400.909 532.231C403.429 532.874 405.708 535.602 406.939 537.745C413.39 548.974 411.318 569.08 407.993 581.003C405.559 589.728 401.481 597.122 393.395 601.691C392.503 601.803 391.607 601.95 390.71 601.786C388.359 601.356 386.63 599.505 385.41 597.566C378.928 587.275 380.754 566.206 383.321 554.917C385.537 545.169 389.569 537.38 398.202 531.93Z"/>
	<path fill="#9DB84F" d="M396.665 515.715C397.541 515.75 399.089 515.868 399.858 516.327C400.6 516.77 401.165 517.226 401.399 518.066C402.004 520.249 400.679 521.95 399.606 523.741C398.782 523.687 397.768 523.61 397.028 523.205C396.325 522.819 395.657 522.144 395.411 521.379C394.702 519.169 395.651 517.622 396.665 515.715Z"/>
	<path fill="#7B9B34" d="M549.956 567.412C549.845 567.135 549.717 566.865 549.622 566.581C547.734 560.919 549.572 536.821 549.597 529.414C549.639 517.134 548.946 504.714 549.623 492.455C549.733 490.455 549.819 488.6 550.845 486.828C556.009 501.99 563.146 515.989 578.129 523.404C583.066 525.848 590.042 528.373 595.573 527.315C597.974 526.856 600.502 525.736 602.946 525.808C603.074 526.558 603.091 526.984 603.033 527.72C606.413 528.684 617.448 523.009 621.25 521.689C633.905 517.295 647.059 516.738 660.336 517.065C663.744 526.432 663.277 541.694 663.524 551.764C664.808 604.123 658.532 647.618 641.105 697.235C637.351 707.921 633.685 718.662 628.889 728.937C625.654 735.867 622.003 742.609 619.664 749.92L618.961 750.556C617.072 755.953 613.79 760.868 610.892 765.772C602.779 779.503 591.248 799.083 576.542 806.522C574.728 807.439 572.484 808.205 570.48 807.427C568.173 806.532 567.167 804.258 566.444 802.057C563.137 791.993 563.366 778.648 560.142 767.529C548.551 767.342 537.476 768.563 525.84 766.965C530.461 781.676 536.302 795.017 544.984 807.838C524.929 804.001 510.613 790.564 499.472 774.139C496.639 769.963 493.215 764.688 491.63 759.925L490.901 759.678C468.903 709.482 461.163 658.143 459.605 603.646C459.323 593.789 457.884 580.58 460.692 571.191C455.88 567.966 448.861 563.376 446.846 557.741C446.973 556.372 446.999 556.313 447.908 555.282C448.766 554.883 449.374 554.822 450.293 554.965C456.631 555.95 462.265 560.291 468.283 562.413C481.307 567.007 495.195 568.759 508.904 569.706C522.855 571.27 536.165 569.401 549.956 567.412Z"/>
	<path fill="#142418" d="M549.956 567.412C562.265 564.539 574.472 561.423 586.266 556.818C600.861 551.12 620.631 532.474 636.726 542.161C639.733 543.971 645.13 548.929 645.689 552.59C645.799 553.31 645.755 553.366 645.675 553.994C644.834 554.894 644.598 554.967 643.267 554.926C641.405 554.868 638.882 553.305 637.213 552.469C627.065 591.826 613.179 634.141 575.768 655.961C561.106 664.513 542.716 667.181 526.276 662.78C508.835 658.112 495.888 645.211 487.138 629.855C477.56 613.044 474.48 593.821 470.615 575.124C467.281 573.922 463.843 572.823 460.692 571.191C455.88 567.966 448.861 563.376 446.846 557.741C446.973 556.372 446.999 556.313 447.908 555.282C448.766 554.883 449.374 554.822 450.293 554.965C456.631 555.95 462.265 560.291 468.283 562.413C481.307 567.007 495.195 568.759 508.904 569.706C522.855 571.27 536.165 569.401 549.956 567.412Z"/>
	<path fill="#C65D2F" d="M584.747 612.152C590.501 611.417 596.375 612.301 602.035 613.278C597.65 621.019 591.348 628.292 584.988 634.47C573.304 645.819 558.589 652.82 542.117 652.532C532.595 652.366 523.285 650.41 516.499 643.315C515.76 642.517 515.317 641.845 514.847 640.865C514.956 639.584 515.38 638.987 516.094 637.999C526.066 624.209 537.934 618.614 554.521 615.98C549.826 621.264 547.179 625.757 544.883 632.461C548.603 630.393 552.024 627.644 555.481 625.158C564.444 618.709 573.704 613.732 584.747 612.152Z"/>
	<path fill="#F9E9D1" d="M599.398 563.01C599.475 563.135 599.579 563.247 599.628 563.385C600.211 565.056 598.904 567.299 598.088 568.676C589.657 582.891 573.541 589.996 558.106 593.82C538.703 598.626 516.934 600.243 499.181 589.466C495.942 586.489 493.692 583.202 491.414 579.476C500.732 582.05 510.272 582.6 519.89 582.518C548.349 582.275 573.674 574.63 599.398 563.01Z"/>
	<path fill="#4B7532" d="M512.863 685.348C525.627 693.828 536.329 696.194 551.424 693.072C552.445 692.861 553.421 692.583 554.414 692.269C556.143 717.351 557.162 742.267 560.378 767.243C583.793 763.62 596.974 759.129 618.961 750.556C617.072 755.953 613.79 760.868 610.892 765.772C602.779 779.503 591.248 799.083 576.542 806.522C574.728 807.439 572.484 808.205 570.48 807.427C568.173 806.532 567.167 804.258 566.444 802.057C563.137 791.993 563.366 778.648 560.142 767.529C548.551 767.342 537.476 768.563 525.84 766.965C530.461 781.676 536.302 795.017 544.984 807.838C524.929 804.001 510.613 790.564 499.472 774.139C496.639 769.963 493.215 764.688 491.63 759.925C502.833 762.315 514.058 764.606 525.302 766.796C517.693 739.748 516.068 713.02 512.863 685.348Z"/>
	<path fill="#142418" d="M512.863 685.348C511.025 682.952 508.049 679.688 507.904 676.567L508.525 675.824C514.54 675.496 521.302 679.66 527.09 681.225C541.81 685.206 560.025 678.388 574.217 674.744C568.903 682.117 563.192 689.034 554.414 692.269C553.421 692.583 552.445 692.861 551.424 693.072C536.329 696.194 525.627 693.828 512.863 685.348Z"/>
	<path fill="#142418" d="M551.486 435.555C553.569 428.912 555.897 422.454 559.226 416.32C567.223 401.584 580.261 390.08 596.478 385.308C611.406 380.915 624.604 383.504 638.034 390.82C641.939 394.04 646.032 397.333 649.314 401.201C658.897 412.494 663.903 429.473 665.265 443.973C666.866 461.014 665.009 478.523 657.403 494.012C659.768 497.712 659.528 504.351 659.815 508.71C662.369 510.297 664.196 511.417 665.265 514.303C664.994 515.5 664.968 515.888 663.773 516.511C662.925 516.953 661.28 517.031 660.336 517.065C647.059 516.738 633.905 517.295 621.25 521.689C617.448 523.009 606.413 528.684 603.033 527.72C603.091 526.984 603.074 526.558 602.946 525.808C600.502 525.736 597.974 526.856 595.573 527.315C590.042 528.373 583.066 525.848 578.129 523.404C563.146 515.989 556.009 501.99 550.845 486.828C550.531 480.272 548.793 473.792 548.475 467.208C547.949 456.307 550.238 446.278 551.486 435.555Z"/>
	<path fill="#7B9B34" d="M657.403 494.012C659.768 497.712 659.528 504.351 659.815 508.71C657.14 507.735 654.263 507.136 651.507 506.416C653.611 502.368 655.453 498.139 657.403 494.012Z"/>
	<path fill="#F9E9D1" d="M606.368 396.172C613.836 394.96 622.348 397.358 628.688 401.284C640.866 408.826 648.191 422.667 651.241 436.314C655.282 454.398 652.512 474.623 644.677 491.331C642.067 496.898 638.74 502.05 635.474 507.246C623.299 510.32 616.055 512.81 605.564 520.005C596.439 520.214 586.116 516.692 578.834 511.239C567.092 502.444 561.247 488.388 559.27 474.213C556.472 454.15 560.893 431.869 573.279 415.571C581.53 404.715 592.89 398.05 606.368 396.172Z"/>
	<path fill="#142418" d="M616.978 425.593C621.081 425.602 624.875 426.458 628.385 428.641C634.955 432.726 638.411 440.449 639.981 447.753C643.031 461.945 641.37 478.506 633.337 490.861C628.999 497.533 623.527 501.33 615.732 502.993C612.313 502.987 608.951 502.11 605.963 500.446C598.838 496.519 594.897 488.983 592.914 481.373C589.437 468.032 591.071 451.776 598.119 439.814C602.586 432.23 608.366 427.791 616.978 425.593Z"/>
	<path fill="#F9E9D1" d="M623.224 435.851C624.636 436.046 625.879 436.264 627.153 436.939C630.378 438.65 631.276 442.415 632.271 445.635C630.774 449.892 629.24 452.567 626.037 455.701C625.362 455.677 624.686 455.651 624.015 455.575C621.902 455.336 619.937 454.169 618.644 452.481C617.009 450.347 616.632 447.582 617.061 444.978C617.781 440.611 619.775 438.371 623.224 435.851Z"/>
	<path fill="#2E5424" d="M753.689 637.759C758.288 643.175 762.944 648.468 768.079 653.386C772.027 657.167 777.36 660.999 780.585 665.343C784.892 668.536 789.154 671.826 793.645 674.756C788.138 686.784 782.406 698.689 775.412 709.937C751.673 748.718 715.735 778.525 673.233 794.683L669.004 796.253C659.539 801.078 649.057 803.301 638.74 805.546C600.981 814.007 561.895 814.709 523.856 807.608C514.952 805.991 506.019 804.257 497.389 801.49C495.489 800.88 493.674 800.202 491.887 799.306C488.822 792.362 481.278 786.766 476.506 780.857C467.406 769.585 458.745 757.299 452.422 744.236C464.982 750.066 477.353 756.436 490.901 759.678L491.63 759.925C493.215 764.688 496.639 769.963 499.472 774.139C510.613 790.564 524.929 804.001 544.984 807.838C536.302 795.017 530.461 781.676 525.84 766.965C537.476 768.563 548.551 767.342 560.142 767.529C563.366 778.648 563.137 791.993 566.444 802.057C567.167 804.258 568.173 806.532 570.48 807.427C572.484 808.205 574.728 807.439 576.542 806.522C591.248 799.083 602.779 779.503 610.892 765.772C613.79 760.868 617.072 755.953 618.961 750.556L619.664 749.92C635.237 743.788 650.613 732.733 663.183 721.72C667.596 717.853 671.592 713.21 676.26 709.705C676.394 709.604 676.53 709.507 676.665 709.408C675.151 716.173 671.917 722.189 668.848 728.352C659.133 747.864 647.54 766.931 631.57 782.049C625.586 787.713 618.174 792.193 611.543 797.106C620.159 795.161 628.628 792.66 636.631 788.864C647.47 783.724 657.683 776.787 667.334 769.702C714.449 735.116 734.472 691.352 753.689 637.759Z"/>
	<path fill="#4B7532" d="M780.585 665.343C784.892 668.536 789.154 671.826 793.645 674.756C788.138 686.784 782.406 698.689 775.412 709.937C751.673 748.718 715.735 778.525 673.233 794.683L669.004 796.253C671.922 791.581 686.893 783.325 691.995 779.896C707.01 769.68 720.862 757.851 733.302 744.619C748.254 728.43 760.023 709.375 769.335 689.453C772.912 681.802 775.33 672.65 780.262 665.779C780.368 665.632 780.477 665.489 780.585 665.343Z"/>
	<defs>
		<linearGradient id="gradient_0" gradientUnits="userSpaceOnUse" x1="723.22778" y1="468.62781" x2="791.85382" y2="448.9725">
			<stop offset="0" stop-color="#274A23"/>
			<stop offset="1" stop-color="#3B6427"/>
		</linearGradient>
	</defs>
	<path fill="url(#gradient_0)" d="M709.139 300.454C714.201 302.5 719.837 304.458 724.065 308.026C728.581 311.837 731.872 317.108 735.279 321.881C749.603 341.945 761.228 362.673 770.851 385.39C785.972 420.564 796.62 457.495 802.545 495.32C791.898 503.474 783.224 513.765 781.408 527.469C780.231 536.353 781.79 544.76 784.577 553.183C780.751 565.549 779.072 576.493 785.353 588.389C786.475 590.529 787.682 592.624 788.97 594.668C788.185 599.11 788.011 604.083 786.857 608.384C788.056 616.422 790.3 622.163 794.433 629.131C793.248 632.364 792.965 635.142 792.8 638.541C787.637 634.757 782.965 630.343 778.312 625.962C772.747 622.62 763.56 609.885 761.359 603.904C764.214 595.533 763.984 584.148 764.527 575.279C766.784 533.607 763.237 491.824 753.986 451.13C751.781 441.52 748.941 432.032 746.278 422.54C743.906 414.083 741.69 405.581 738.948 397.232C734.13 382.56 726.131 362.361 713.342 353.072C709.548 350.316 705.488 348.99 701.414 346.877L700.62 346.458C699.365 342.06 696.908 338.913 696.354 334.114C701.076 334.453 708.7 335.741 712.5 332.158C713.947 330.794 714.377 328.956 714.354 327.031C714.308 323.193 712.653 318.923 711.685 315.202C710.391 310.228 709.461 305.586 709.139 300.454Z"/>
	<path fill="#4B7532" d="M778.312 625.962C778.832 622.206 779.459 618.164 781.004 614.678C782.266 611.833 783.931 609.583 786.857 608.384C788.056 616.422 790.3 622.163 794.433 629.131C793.248 632.364 792.965 635.142 792.8 638.541C787.637 634.757 782.965 630.343 778.312 625.962Z"/>
	<path fill="#7B9B34" d="M676.847 338.656C684.31 341.67 691.915 344.973 699.708 347.047C699.784 347.113 699.863 347.176 699.935 347.247C703.821 351.054 707.683 362.271 709.842 367.631C728.252 413.345 742.975 472.667 745.283 522.09C745.954 536.453 745.646 551.28 743.712 565.535C741.878 579.05 738.376 592.338 734.399 605.363C722.781 643.419 705.308 677.67 678.431 707.2C680.772 700.921 683.364 694.762 685.505 688.405C708.172 621.075 714.339 554.021 708.675 483.459C706.803 460.14 704.27 436.738 699.22 413.87C695.57 397.482 691.047 381.301 685.669 365.396C683.288 358.476 677.401 346.898 676.375 340.445C676.185 339.246 676.233 339.521 676.847 338.656Z"/>
	<path fill="#7B9B34" d="M596.142 298.093C605.646 303.675 615.639 308.351 625.078 314.077C626.83 320.175 629.097 326.464 629.108 332.864C640.878 338.853 654.937 347.958 659.38 361.232C660.526 364.654 660.576 368.386 658.77 371.602C657.948 373.065 656.548 374.246 655.328 375.377C648.248 372.013 641.475 364.996 633.959 363.102C634.555 370.637 638.825 384.448 638.034 390.82C624.604 383.504 611.406 380.915 596.478 385.308C580.261 390.08 567.223 401.584 559.226 416.32C555.897 422.454 553.569 428.912 551.486 435.555C550.36 433.822 550.431 431.675 550.397 429.673C550.161 415.822 554.073 350.576 558.979 341.008C562.07 334.978 569.219 331.064 573.674 326.012C581.588 317.038 587.74 306.713 596.142 298.093Z"/>
	<path fill="#142418" d="M633.959 363.102C621.092 356.879 606.436 358.614 593.16 362.337C588.71 363.585 583.454 365.62 578.776 364.81C577.573 364.602 576.444 363.98 575.819 362.895C574.179 360.048 575.367 355.298 576.355 352.434C579.388 343.649 586.559 335.821 594.896 331.777C605.735 326.518 618.246 329.111 629.108 332.864C640.878 338.853 654.937 347.958 659.38 361.232C660.526 364.654 660.576 368.386 658.77 371.602C657.948 373.065 656.548 374.246 655.328 375.377C648.248 372.013 641.475 364.996 633.959 363.102Z"/>
	<defs>
		<linearGradient id="gradient_1" gradientUnits="userSpaceOnUse" x1="643.14026" y1="331.04694" x2="666.86823" y2="306.87961">
			<stop offset="0" stop-color="#274A22"/>
			<stop offset="1" stop-color="#477128"/>
		</linearGradient>
	</defs>
	<path fill="url(#gradient_1)" d="M608.451 294.388C636.268 311.7 662.633 330.318 696.354 334.114C696.908 338.913 699.365 342.06 700.62 346.458L699.708 347.047C691.915 344.973 684.31 341.67 676.847 338.656C671.083 335.618 664.804 333.503 658.947 330.61C643.564 323.01 620.467 309.787 608.013 297.902C607.082 297.015 606.774 296.586 606.8 295.31L608.451 294.388Z"/>
	<path fill="#4B7532" d="M82.043 304.598C91.8613 303.418 101.902 303.019 111.769 302.286L167.785 298.126L330.4 286.038C334.578 331.918 337.229 378.04 340.575 423.994L343.857 468.391C344.655 478.891 345.924 489.587 345.398 500.123C344.903 510.038 341.44 519.686 338.616 529.132C338.466 529.001 338.32 528.866 338.166 528.741C333.901 525.25 328.613 522.613 322.959 523.414C318.265 524.08 314.109 526.99 311.456 530.855C308.685 534.9 307.664 539.892 308.625 544.7C309.517 549.259 311.951 553.567 315.992 556.019C321.726 559.496 327.774 558.042 333.809 556.524L332.232 564.319C305.595 565.413 278.536 567.166 252.039 570.102C252.086 564.001 251.32 557.363 248.696 551.79C246.143 546.366 242.214 543.033 236.624 541.039C234.935 541.019 233.236 541.104 231.547 541.148C224.122 542.907 218.165 548.233 212.227 552.765C210.398 554.942 207.818 558.884 204.712 558.983C204.451 558.991 204.189 558.972 203.928 558.966L202.704 559.315C203.055 560.521 203.068 559.928 202.691 561.094C197.585 557.827 196.796 549.596 185.997 544.919C177.789 541.363 169.004 543.504 161.145 546.783L156.483 549.36C155.602 550.012 154.72 550.674 153.905 551.408C144.544 559.83 144.125 572.76 143.782 584.397C130.397 586.752 116.139 586.608 102.571 587.55L82.043 304.598Z"/>
	<path fill="#142418" d="M240.545 354.488C243.938 354.353 248.447 353.678 251.1 356.318C252.991 358.199 253.217 361.078 253.543 363.573C253.589 365.885 253.779 368.076 254.137 370.361C254.114 375.129 254.277 379.847 254.492 384.608L255.243 387.368C255.47 391.097 255.65 394.836 255.943 398.56L256.501 403.546C256.736 407.563 257.037 411.576 257.405 415.584C257.57 417.461 257.665 419.376 257.984 421.233C258.103 423.854 258.612 427.34 256.428 429.297C253.891 431.57 249.212 430.78 246.069 431.315L241.524 431.459C237.785 431.517 231.5 430.905 228.093 432.199L225.009 432.551C221.154 432.774 217.303 433.073 213.459 433.448C211.662 433.625 209.852 433.765 208.062 434.001C204.375 434.061 200.691 434.226 197.013 434.493C195.148 434.642 193.274 434.752 191.427 435.056C188.82 435.313 186.168 435.549 183.886 434.008C178.156 430.139 181.001 418.073 179.879 411.97C179.832 411.715 179.779 411.462 179.729 411.208L179.403 409.56C179.362 405.769 178.941 401.96 178.631 398.181L178.354 393.006C177.253 388.12 177.861 382.651 177.214 377.658L176.665 372.821C176.421 369.166 175.498 363.858 178.031 360.835C180.378 358.032 184.082 358.193 187.409 357.974C189.698 358.078 191.944 357.934 194.226 357.789C198.181 357.411 202.159 357.252 206.126 357.045C207.932 356.929 209.75 356.643 211.548 356.429C214.45 356.625 217.626 356.226 220.545 356.077L226.071 355.469C229.154 355.539 232.325 355.228 235.408 355.071L240.545 354.488Z"/>
	<path fill="#F29C33" d="M193.141 367.519C210.096 366.057 227.219 365.772 244.124 364.125C242.861 382.761 245.643 401.847 247.137 420.438C229.997 422.075 212.695 422.397 195.587 424.232C193.732 424.483 191.798 424.477 189.927 424.57C189.93 405.564 187.697 386.57 186.639 367.597L193.141 367.519Z"/>
	<path fill="#F8C149" d="M186.639 367.597L193.141 367.519C192.219 368.872 191.348 370.168 191.043 371.805C190.32 375.68 191.117 380.269 191.442 384.179C192.048 391.457 192.577 398.768 193.464 406.018C194.195 411.99 195.53 418.231 195.587 424.232C193.732 424.483 191.798 424.477 189.927 424.57C189.93 405.564 187.697 386.57 186.639 367.597Z"/>
	<path fill="#142418" d="M145.633 476.234C153.008 475.299 168.466 471.719 174.73 476.706C176.67 478.252 177.186 480.372 177.419 482.749C177.478 483.36 177.465 483.95 177.448 484.562L178.02 489.57C178.172 494.486 178.069 499.624 178.642 504.497L179.284 505.346C179.874 511.282 182.556 522.969 178.633 527.99C176.418 530.826 172.476 531.518 169.109 531.821C165.406 532.154 161.676 532.292 157.964 532.484C156.029 532.567 154.026 532.551 152.113 532.854C147.5 533.286 130.496 535.873 127.456 532.595C123 527.792 121.692 489.375 121.502 480.649L124.133 477.594C129.801 477.16 135.579 477.746 141.189 476.569L145.633 476.234Z"/>
	<path fill="#F29C33" d="M165.686 485.507L167.079 485.604C169.077 488.516 170.358 515.762 170.559 521.321C160.788 521.692 150.805 521.74 141.107 523.013L134.625 523.465C133.441 511.392 132.419 499.221 131.82 487.106C143.101 486.653 154.392 485.427 165.686 485.507Z"/>
	<path fill="#F8C149" d="M131.82 487.106C143.101 486.653 154.392 485.427 165.686 485.507C163.137 488.692 159.219 489.295 155.344 489.715C149.957 490.299 144.376 490.374 138.956 490.524C139.23 501.378 140.197 512.197 141.107 523.013L134.625 523.465C133.441 511.392 132.419 499.221 131.82 487.106Z"/>
	<path fill="#142418" d="M280.028 452.907C280.005 449.939 279.715 445.653 282.382 443.601C285.647 441.09 319.455 440.096 324.559 441.287C326.685 443.227 327.149 445.221 327.265 448.039C327.359 450.314 326.889 453.843 327.727 455.893L328.587 461.929C328.611 463.769 328.621 465.567 328.886 467.39C329.219 470.773 329.465 474.191 329.908 477.559C330.015 479.612 329.936 481.874 330.326 483.883L330.615 490.903C330.356 492.837 330.195 495.275 329.221 497.01C328.201 498.83 326.251 499.199 324.353 499.587C317.932 500.898 289.69 503.69 284.257 500.091C281.791 496.222 283.558 491.627 282.662 487.34C282.633 487.201 282.598 487.063 282.566 486.924L282.451 485.008C282.423 481.606 282.285 477.835 281.748 474.482L281.002 467.485C280.955 464.482 280.681 461.455 280.502 458.455C280.442 456.601 280.211 454.752 280.028 452.907Z"/>
	<path fill="#55802F" d="M293.29 452.232C301.161 451.734 309.048 451.179 316.93 450.897L317.537 457.46C317.964 464.287 318.442 471.11 318.972 477.93L320.13 489.943C310.878 490.563 301.56 491.452 292.287 490.928C292.133 489.224 291.956 487.517 291.836 485.81C291.035 477.797 288.612 460.524 289.796 453.471C291.01 452.376 291.702 452.471 293.29 452.232Z"/>
	<path fill="#F29C33" d="M296.012 479.509C303.672 479.047 311.303 478.277 318.972 477.93L320.13 489.943C310.878 490.563 301.56 491.452 292.287 490.928C292.133 489.224 291.956 487.517 291.836 485.81C293.125 485.708 294.139 485.627 295.33 485.055C296.331 483.33 296.01 481.476 296.012 479.509Z"/>
	<path fill="#F8C149" d="M291.836 485.81C291.035 477.797 288.612 460.524 289.796 453.471C291.01 452.376 291.702 452.471 293.29 452.232C293.719 454.225 294.071 456.2 294.346 458.22C294.793 465.303 295.052 472.476 296.012 479.509C296.01 481.476 296.331 483.33 295.33 485.055C294.139 485.627 293.125 485.708 291.836 485.81Z"/>
	<path fill="#F29C33" d="M293.29 452.232C301.161 451.734 309.048 451.179 316.93 450.897L317.537 457.46C309.809 457.771 302.079 458.025 294.346 458.22C294.071 456.2 293.719 454.225 293.29 452.232Z"/>
	<path fill="#F8C149" d="M263.849 326.33C260.148 324.328 256.618 322.311 255.216 318.033C254.281 315.18 254.737 312.061 256.174 309.456C257.652 306.756 260.166 304.776 263.137 303.972C266.038 303.197 269.273 303.632 271.822 305.237C275.314 307.436 276.562 310.698 277.568 314.504C276.222 319.936 274.218 322.588 269.98 326.182C270.353 334.52 271.001 342.997 270.569 351.334C267.514 356.297 259.811 367.899 254.405 370.315C254.322 370.351 254.227 370.345 254.137 370.361C253.779 368.076 253.589 365.885 253.543 363.573C258.065 358.874 261.949 354.199 265.518 348.739C265.266 341.325 264.942 333.669 263.849 326.33Z"/>
	<path fill="#4B7532" d="M264.791 309.231C266.796 308.761 268.897 309.43 270.262 310.972C271.627 312.513 272.036 314.679 271.327 316.613C270.619 318.546 268.906 319.935 266.868 320.229C263.9 320.658 261.12 318.672 260.564 315.725C260.007 312.778 261.87 309.915 264.791 309.231Z"/>
	<path fill="#F8C149" d="M286.051 419.446C290.838 419.801 300.959 421.024 304.888 417.505C306.432 416.122 306.81 414.594 306.857 412.614C306.949 408.719 305.962 404.891 309.042 401.817C311.19 399.672 313.706 398.973 316.685 399.147C319.041 399.284 321.724 400.449 323.193 402.356C324.713 404.328 325.129 407.761 324.646 410.148C323.977 413.456 321.817 415.765 319.329 417.877C316.989 417.916 314.642 418.02 312.309 417.807C309.963 420.325 307.688 422.769 304.973 424.895C294.39 426.295 285.606 426.546 276.323 420.44C270.206 420.604 264.092 420.868 257.984 421.233C257.665 419.376 257.57 417.461 257.405 415.584C268.104 414.776 276.912 412.148 286.051 419.446Z"/>
	<path fill="#4B7532" d="M315.206 405.268C317.006 404.776 318.872 405.802 319.42 407.586C319.968 409.37 319 411.266 317.235 411.87C316.042 412.277 314.723 412.003 313.791 411.155C312.859 410.306 312.464 409.018 312.758 407.793C313.053 406.568 313.991 405.6 315.206 405.268Z"/>
	<path fill="#F8C149" d="M138.11 440.426C141.985 437.094 145.743 433.374 147.92 428.677C150.04 424.103 149.737 417.687 153.33 414.003C158.663 408.536 172.22 409.567 179.403 409.56L179.729 411.208C179.621 412.665 179.664 413.154 178.845 414.404C174.292 416.849 168.357 415.473 163.346 415.67C161.375 415.747 159.438 416.078 157.919 417.43C155.326 419.739 154.511 432.2 147.469 439.631C140.129 447.376 130.26 446.913 120.466 447.064C118.879 448.508 116.921 450.322 114.877 451.048C113.418 451.567 111.814 451.577 110.447 450.761C109.051 449.927 108.227 448.221 107.858 446.689C107.264 444.219 107.607 441.26 109.043 439.126C109.886 437.875 111.124 436.942 112.671 436.802C115.981 436.502 118.619 439.459 120.726 441.577C126.382 440.526 132.363 440.538 138.11 440.426Z"/>
	<path fill="#F8C149" d="M152.679 345.632C149.522 344.812 146.867 343.874 144.69 341.309C142.771 339.071 141.846 336.147 142.13 333.211C142.444 330.133 143.984 327.31 146.403 325.38C148.478 323.729 151.118 322.878 153.761 323.311C158.423 324.075 161.136 327.981 163.751 331.489C164.804 331.756 165.869 332.032 166.883 332.426C173.479 334.988 191.513 351.695 194.226 357.789C191.944 357.934 189.698 358.078 187.409 357.974C180.8 351.117 172.796 341.239 164.159 337.207C160.638 341.841 158.495 344.197 152.679 345.632Z"/>
	<path fill="#4B7532" d="M150.747 328.502C152.773 328.908 154.562 329.266 156.079 330.765C157.207 331.88 157.805 333.323 157.61 334.933C157.322 337.313 155.771 338.607 154.069 340.105C152.165 339.857 150.466 339.601 149.048 338.178C148.045 337.172 147.517 335.938 147.53 334.498C147.553 331.879 149.003 330.274 150.747 328.502Z"/>
	<path fill="#F8C149" d="M228.093 432.199C228.696 432.308 229.395 432.265 229.829 432.745C232.368 435.557 231.921 449.212 232.031 453.246C237.232 458.807 243.878 462.66 249.484 467.758C255.242 472.995 256.743 478.062 257.104 485.576C259.478 487.509 262.76 490.273 262.944 493.625C263.018 494.974 262.769 496 261.842 497.021C260.356 498.659 257.89 499.348 255.746 499.42C253.757 499.488 251.03 498.985 249.621 497.432C248.647 496.359 248.245 495.414 248.255 493.965C248.274 491.049 250.456 488.735 252.323 486.774C250.439 470.379 242.34 471.385 232.34 462.179C224.186 454.672 225.361 442.673 225.009 432.551L228.093 432.199Z"/>
	<path fill="#F8C149" d="M289.343 393.388C292.653 387.165 295.739 378.538 303.124 376.331C305.566 375.601 321.661 374.11 323.358 374.862C324.458 375.35 325.277 376.445 325.542 377.603C325.895 379.147 325.443 380.754 324.528 382.01C323.591 383.296 321.976 384.255 320.384 384.422C318.058 384.667 316.158 383.613 314.214 382.475C310.083 382.674 305.943 382.824 301.822 383.173C296.713 391.345 294.703 398.634 284.296 401.119C275.666 403.179 265.369 403.461 256.501 403.546L255.943 398.56C267.305 396.567 278.214 397.283 289.343 393.388Z"/>
	<path fill="#F8C149" d="M145.969 393.182C157.13 394.937 167.238 393.048 178.354 393.006L178.631 398.181C169.562 399.604 156.089 399.409 146.313 400.236C142.125 404.53 138.166 409.046 134.162 413.511C134.742 416.378 135.385 419.269 135.813 422.163C136.161 424.516 136.342 427.418 134.679 429.341C133.763 430.4 132.791 430.485 131.494 430.577C130.735 430.233 130.157 429.958 129.659 429.247C127.443 426.081 128.536 421.648 129.063 418.141C127.973 416.054 127.124 413.868 126.235 411.69C130.781 404.868 139.254 397.937 145.969 393.182Z"/>
	<path fill="#F8C149" d="M290.453 354.25C288.995 352.074 287.325 349.916 287.835 347.138C288.079 345.813 288.838 344.732 289.968 344.005C291.495 343.022 293.541 342.828 295.281 343.255C296.834 343.636 298.29 344.563 299.064 346C299.948 347.638 299.736 349.615 298.983 351.253C298.547 352.201 297.987 353.106 297.448 353.999L297.534 364.721C288.168 375.798 280.46 385.269 265.165 386.567C261.858 386.847 258.545 387.032 255.243 387.368L254.492 384.608C254.959 383.399 254.919 382.863 256.163 382.315C259.831 380.701 265.507 380.712 269.521 380.172C279.822 378.785 283.415 369.501 290.797 363.512C290.894 363.433 290.99 363.352 291.087 363.272C290.849 360.283 290.507 357.247 290.453 354.25Z"/>
	<path fill="#F8C149" d="M208.062 434.001C209.852 433.765 211.662 433.625 213.459 433.448C213.852 440.591 213.344 454.666 215.464 461.006C216.433 463.903 218.248 466.271 220.511 468.288C225.962 473.148 237.21 477.143 237.994 485.39C238.12 486.712 237.856 488.141 236.978 489.177C235.707 490.676 233.676 491.319 231.761 491.349C229.833 491.379 227.684 490.741 226.304 489.34C224.856 487.87 224.259 486.097 224.418 484.056C224.55 482.355 225.24 480.772 226.072 479.303C218.925 474.714 211.666 470.514 209.803 461.487C207.961 452.566 209.717 442.933 208.062 434.001Z"/>
	<path fill="#F8C149" d="M191.427 435.056C193.274 434.752 195.148 434.642 197.013 434.493C197.336 440.513 197.195 446.926 198.011 452.878C199.045 460.417 206.11 480.459 200.745 486.299C196.979 490.399 187.166 489.631 182.02 489.603L178.02 489.57L177.448 484.562C182.63 484.524 187.696 484.307 192.779 483.233C193.901 481.146 194.976 479.034 196.004 476.9C195.712 473.812 195.604 470.709 195.452 467.612L192.602 462.841C193.621 453.48 192.608 444.343 191.427 435.056Z"/>
	<path fill="#F8C149" d="M200.419 304.567C203.016 304.509 205.606 304.258 208.194 304.049C208.983 311.039 209.877 318.064 210.138 325.097C210.529 335.601 210.082 345.983 211.548 356.429C209.75 356.643 207.932 356.929 206.126 357.045C204.938 352.124 205.017 346.562 204.438 341.508C203.02 329.135 201.305 317.016 200.419 304.567Z"/>
	<path fill="#F8C149" d="M215.486 304.083C218.264 303.576 221.094 303.545 223.91 303.439C224.045 310.161 224.852 316.876 225.057 323.599C225.383 334.298 225.256 344.75 226.071 355.469L220.545 356.077C220.092 339.245 217.071 321.02 215.486 304.083Z"/>
	<path fill="#F8C149" d="M155.189 371.984C152.347 371.922 148.842 371.489 146.08 372.141C140.703 373.41 137.694 381.191 132.97 381.45C131.594 381.525 130.271 380.975 129.231 380.105C127.882 378.977 126.78 377.053 126.785 375.255C126.789 373.718 127.32 371.981 128.653 371.053C131.22 369.265 146.074 366.712 150.027 366.42C152.524 366.236 155.074 366.428 157.572 366.567C160.347 368.94 163.204 371.396 166.469 373.062L176.665 372.821L177.214 377.658C175.854 378.914 171.827 379.175 169.927 379.178C163.834 379.19 159.346 376.018 155.189 371.984Z"/>
	<path fill="#F8C149" d="M230.244 303.553L238.282 302.94C238.652 309.436 239.354 315.913 239.589 322.417C239.977 333.157 239.784 343.732 240.545 354.488L235.408 355.071C234.473 349.286 234.293 343.261 233.654 337.423C232.42 326.157 230.882 314.871 230.244 303.553Z"/>
	<path fill="#F8C149" d="M230.021 522.283C227.365 519.748 224.901 517.767 224.817 513.803C224.774 511.733 225.492 509.907 226.952 508.432C228.608 506.791 230.874 505.915 233.203 506.016C235.534 506.143 237.701 507.251 239.167 509.067C240.36 510.531 240.846 512.563 241.39 514.34C239.984 517.76 238.72 519.982 235.885 522.477C236.162 528.656 236.546 534.856 236.624 541.039C234.935 541.019 233.236 541.104 231.547 541.148C231.11 534.923 231.008 528.437 230.021 522.283Z"/>
	<path fill="#F8C149" d="M241.524 431.459L246.069 431.315C248.496 435.427 248.004 440.22 248.128 444.827C253.484 450.478 258.965 453.417 266.895 453.62C271.273 453.732 275.66 453.163 280.028 452.907C280.211 454.752 280.442 456.601 280.502 458.455C279.587 458.548 278.67 458.625 277.752 458.684C267.922 459.359 255.815 459.929 247.973 452.787C241.816 447.18 241.805 439.148 241.524 431.459Z"/>
	<path fill="#F8C149" d="M178.642 504.497C178.746 503.094 178.578 501.139 179.561 500.054C184.002 498.682 197.393 496.385 201.406 498.129C202.245 499.13 202.666 499.432 202.509 500.834C202.373 502.057 201.55 503.172 200.503 503.769C199.084 504.578 182.931 504.839 179.284 505.346L178.642 504.497Z"/>
	<path fill="#F8C149" d="M203.928 558.966C201.753 557.759 199.764 555.89 199.132 553.4C198.682 551.63 199.12 549.784 200.148 548.303C201.359 546.561 203.28 545.307 205.409 545.076C206.933 544.912 208.426 545.346 209.597 546.344C211.65 548.096 211.931 550.211 212.227 552.765C210.398 554.942 207.818 558.884 204.712 558.983C204.451 558.991 204.189 558.972 203.928 558.966Z"/>
	<path fill="#F8C149" d="M121.502 480.649C119.786 480.642 117.945 480.639 116.376 479.866C114.874 479.126 113.58 477.9 113.207 476.207C112.837 474.527 113.27 472.772 114.099 471.298C115.059 469.591 116.899 467.64 118.976 467.442C120.273 467.318 121.176 467.814 122.08 468.683C124.204 470.725 124.104 474.874 124.133 477.594L121.502 480.649Z"/>
	<path fill="#F8C149" d="M269.43 468.073C273.286 467.985 277.151 467.696 281.002 467.485L281.748 474.482L281.415 476.224C278.87 478.636 273.912 477.954 270.642 477.97C270.028 474.727 269.792 471.355 269.43 468.073Z"/>
	<path fill="#F8C149" d="M270.424 485.672L282.451 485.008L282.566 486.924L282.593 487.62C282.654 489.457 282.934 491.114 281.389 492.437C279.081 494.415 273.748 493.936 270.776 494.022C270.488 491.268 270.513 488.441 270.424 485.672Z"/>
	<path fill="#F8C149" d="M152.113 532.854C154.026 532.551 156.029 532.567 157.964 532.484C158.174 537.623 158.67 542.144 161.145 546.783L156.483 549.36C152.802 544.211 152.637 538.948 152.113 532.854Z"/>
	<path fill="#F8C149" d="M141.189 476.569C140.501 476.612 139.81 476.66 139.12 476.676C137.471 476.714 137.057 476.44 135.927 475.357C135.625 474.499 135.376 473.84 135.555 472.909C135.861 471.32 137.139 469.623 138.641 468.952C139.754 468.454 140.911 468.399 142.019 468.979C144.636 470.349 145.086 473.642 145.633 476.234L141.189 476.569Z"/>
	<path fill="#F8C149" d="M327.727 455.893C327.916 454.068 327.797 453.231 328.93 451.75C330.188 451.454 330.503 451.384 331.706 452.065C333.122 452.866 334.501 455.198 334.709 456.785C334.951 458.631 334.563 459.537 333.392 460.931C331.78 461.876 330.424 461.863 328.587 461.929L327.727 455.893Z"/>
	<path fill="#F8C149" d="M330.326 483.883C331.699 483.308 333.892 483.066 335.256 483.813C336.378 484.429 336.866 485.567 337.102 486.755C337.407 488.292 336.938 490.593 335.817 491.707C334.869 492.648 334.207 492.54 332.973 492.569C332.049 492.078 331.286 491.723 330.615 490.903L330.326 483.883Z"/>
	<path fill="#F8C149" d="M328.886 467.39C330.646 467.427 332.246 467.28 333.59 468.605C334.812 469.809 335.829 471.693 335.686 473.435C335.608 474.387 334.912 476.252 334.109 476.795C332.99 477.552 331.227 477.462 329.908 477.559C329.465 474.191 329.219 470.773 328.886 467.39Z"/>
	<path fill="#142418" d="M105.09 310.169C114.064 308.897 122.397 315.063 123.805 324.016C125.213 332.969 119.174 341.395 110.243 342.939C104.344 343.959 98.3534 341.721 94.5674 337.084C90.7815 332.446 89.788 326.129 91.9679 320.553C94.1477 314.977 99.1627 311.009 105.09 310.169Z"/>
	<path fill="#F9E9D1" d="M107.013 320.803C110.201 320.61 112.944 323.033 113.146 326.22C113.348 329.407 110.933 332.157 107.746 332.368C104.547 332.58 101.784 330.153 101.581 326.953C101.378 323.753 103.813 320.996 107.013 320.803Z"/>
	<path fill="#142418" d="M121.492 546.181C130.411 544.891 138.716 550.992 140.151 559.889C141.587 568.785 135.623 577.189 126.751 578.77C120.881 579.816 114.903 577.616 111.113 573.014C107.322 568.412 106.307 562.124 108.458 556.563C110.609 551.002 115.591 547.034 121.492 546.181Z"/>
	<path fill="#F9E9D1" d="M122.185 556.76C124.197 556.092 126.413 556.558 127.985 557.981C129.556 559.403 130.242 561.561 129.778 563.629C129.314 565.698 127.774 567.357 125.745 567.972C122.665 568.906 119.406 567.191 118.432 564.123C117.458 561.055 119.13 557.774 122.185 556.76Z"/>
	<path fill="#142418" d="M306.184 295.237C315.148 293.704 323.658 299.724 325.197 308.686C326.737 317.649 320.722 326.164 311.761 327.709C302.79 329.256 294.265 323.235 292.724 314.263C291.184 305.292 297.211 296.771 306.184 295.237Z"/>
	<path fill="#F9E9D1" d="M307.379 305.765C310.395 304.856 313.58 306.55 314.513 309.559C315.445 312.569 313.776 315.767 310.774 316.723C307.739 317.689 304.497 315.997 303.555 312.955C302.612 309.912 304.329 306.684 307.379 305.765Z"/>
	<path fill="#F8C149" d="M258.015 507.87C259.922 507.924 261.97 508.243 263.593 509.311C264.792 510.099 265.578 511.249 265.825 512.668C266.396 515.962 264.556 518.617 262.75 521.16C263.785 527.815 266.526 538.028 264.093 544.355C263.182 546.725 261.557 547.525 259.35 548.447C257.709 547.998 256.047 547.569 254.791 546.349C253.665 545.256 253.151 543.89 253.234 542.319C253.409 539.032 255.833 536.803 258.068 534.727C257.768 530.449 258.059 525.386 256.741 521.297C255.976 518.926 253.526 515.829 253.824 513.387C254.115 511.002 256.343 509.343 258.015 507.87Z"/>
	<path fill="#F8C149" d="M164.237 442.426C165.159 442.585 166.111 442.74 167.003 443.029C168.941 443.671 170.537 445.069 171.429 446.905C172.298 448.711 172.359 450.696 171.69 452.581C170.708 455.35 168.684 456.667 166.172 457.927C165.521 457.834 164.872 457.719 164.228 457.584C162.031 457.107 160.143 455.713 159.04 453.753C158.027 451.957 157.924 449.993 158.534 448.039C159.47 445.04 161.583 443.794 164.237 442.426Z"/>
	<path fill="#F8C149" d="M201.35 514.034C202.334 514.28 203.34 514.531 204.242 515.008C206.132 516.007 207.721 517.688 208.215 519.81C208.613 521.522 208.195 523.306 207.257 524.771C205.701 527.199 203.71 527.889 201.024 528.585C199.849 528.314 198.607 528.045 197.492 527.583C195.818 526.889 194.418 525.278 193.879 523.564C193.359 521.911 193.603 520.305 194.394 518.791C195.872 515.965 198.44 514.869 201.35 514.034Z"/>
	<path fill="#F8C149" d="M277.156 536.224C280.666 535.137 284.396 537.078 285.518 540.576C286.641 544.075 284.737 547.824 281.25 548.982C278.963 549.741 276.445 549.213 274.655 547.601C272.865 545.988 272.078 543.538 272.596 541.184C273.113 538.831 274.855 536.937 277.156 536.224Z"/>
	<path fill="#F8C149" d="M291.317 507.228C293.668 506.465 296.248 507.062 298.025 508.78C299.802 510.498 300.486 513.056 299.802 515.432C299.119 517.807 297.18 519.611 294.762 520.122C291.285 520.857 287.841 518.742 286.923 515.309C286.006 511.875 287.937 508.324 291.317 507.228Z"/>
	<path fill="#F8C149" d="M314.299 344.241C316.467 343.453 318.891 343.9 320.635 345.409C322.379 346.917 323.17 349.252 322.702 351.51C322.234 353.769 320.58 355.597 318.38 356.288C315.081 357.325 311.557 355.536 310.448 352.261C309.338 348.985 311.049 345.423 314.299 344.241Z"/>
	<path fill="#F8C149" d="M182.153 306.747C185.406 305.468 189.079 307.072 190.353 310.328C191.626 313.583 190.016 317.254 186.758 318.522C183.508 319.787 179.848 318.181 178.578 314.933C177.307 311.685 178.907 308.022 182.153 306.747Z"/>
	<path fill="#F8C149" d="M113.041 360.226C113.27 360.181 113.495 360.101 113.728 360.091C114.436 360.06 115.15 360.127 115.661 360.642C117.548 362.543 117.118 366.908 117.189 369.431C114.665 369.487 112.141 369.718 109.623 369.898C108.617 369.895 107.491 369.909 106.771 369.105C105.063 367.197 105.628 363.488 105.665 361.083C108.085 360.636 110.592 360.48 113.041 360.226Z"/>
	<path fill="#F8C149" d="M115.188 399.694C115.382 399.654 115.572 399.586 115.769 399.573C117.227 399.475 117.495 399.622 118.546 400.51C119.55 402.855 119.238 405.554 119.213 408.066C116.45 408.323 113.649 408.4 110.876 408.547C109.369 408.447 109.099 408.505 107.915 407.605C106.827 405.515 106.981 403.017 106.873 400.703L115.188 399.694Z"/>
	<path fill="#F8C149" d="M105.607 379.073C109.603 378.963 113.602 378.924 117.6 378.956C117.864 381.642 118.16 384.215 117.832 386.913L106.052 387.524L105.607 379.073Z"/>
	<path fill="#F9E9D1" d="M795.523 543.843C795.114 535.551 794.438 526.643 798.669 519.122C803.91 509.806 813.781 504.918 823.75 502.293C845.714 496.509 876.524 497.471 896.422 509.14C905.711 513.69 910.747 521.137 914.031 530.736C922.87 556.573 919.543 585.393 907.613 609.611C904.004 616.937 897.537 623.606 891.958 629.545C889.695 631.954 887.191 634.243 885.389 637.024L885.802 637.643C891.696 638.264 900.231 633.401 904.547 629.78C915.122 620.908 920.812 607.976 926.897 595.926C927.271 615.841 925.539 634.167 910.921 649.241C901.452 659.007 887.454 665.282 873.815 665.433C861.798 665.566 849.74 661.113 841.213 652.568C839.011 650.362 837.017 647.836 835.274 645.252L841.136 643.367C847.986 647.526 853.659 649.986 861.765 648.04C864.452 647.395 867.476 646.585 869.577 644.727L869.524 643.991C866.856 642.552 863.16 642.396 860.169 641.734C855.153 640.623 851.081 638.199 846.873 635.376C849.558 634.82 852.262 634.308 854.935 633.699L854.229 633.48C848.091 631.551 833.498 623.62 827.8 624.987C827.289 625.604 827.028 625.616 827.136 626.495C827.491 629.387 830.554 632.223 832.415 634.344C822.652 633.086 812.607 631.012 806.184 622.758C801.857 617.196 801.006 610.659 801.606 603.845C802.207 602.207 802.791 600.432 803.843 599.018C810.174 590.51 826.391 587.814 836.199 586.74C840.242 586.297 846.659 586.434 850.038 584.132L850.156 583.322C849.368 582.528 848.674 582.03 847.645 581.569C833.506 575.245 813.931 580.85 800.338 586.132C797.125 582.874 794.877 579.058 794.306 574.466C793.555 568.426 795.184 562.035 799.103 557.344C811.383 542.642 835.081 543.613 852.271 542.096C854.179 541.928 856.112 541.875 857.392 540.341C857.278 540.065 857.209 539.766 857.049 539.514C855.681 537.353 849.348 535.328 846.834 534.643C843.921 533.85 840.36 533.794 837.324 533.56C821.606 532.349 808.977 535.964 795.523 543.843Z"/>
	<path fill="#C0BCA9" d="M896.422 509.14C905.711 513.69 910.747 521.137 914.031 530.736C922.87 556.573 919.543 585.393 907.613 609.611C904.004 616.937 897.537 623.606 891.958 629.545C889.695 631.954 887.191 634.243 885.389 637.024L885.802 637.643C891.696 638.264 900.231 633.401 904.547 629.78C915.122 620.908 920.812 607.976 926.897 595.926C927.271 615.841 925.539 634.167 910.921 649.241C901.452 659.007 887.454 665.282 873.815 665.433C861.798 665.566 849.74 661.113 841.213 652.568C839.011 650.362 837.017 647.836 835.274 645.252L841.136 643.367C847.986 647.526 853.659 649.986 861.765 648.04C864.452 647.395 867.476 646.585 869.577 644.727L869.524 643.991C866.856 642.552 863.16 642.396 860.169 641.734C855.153 640.623 851.081 638.199 846.873 635.376C849.558 634.82 852.262 634.308 854.935 633.699L854.229 633.48C848.091 631.551 833.498 623.62 827.8 624.987C827.289 625.604 827.028 625.616 827.136 626.495C827.491 629.387 830.554 632.223 832.415 634.344C822.652 633.086 812.607 631.012 806.184 622.758C801.857 617.196 801.006 610.659 801.606 603.845C801.625 603.991 801.641 604.138 801.664 604.284C801.699 604.503 801.743 604.72 801.78 604.939C801.913 605.729 801.877 605.878 802.238 606.661C803.221 608.795 805.973 610.739 808.109 611.542C814.305 613.871 822.365 612.598 828.951 613.696C844.585 616.302 859.6 627.381 875.604 619.825C886.996 614.447 893.504 602.647 897.553 591.257C906.802 565.234 908.591 534.531 896.422 509.14Z"/>
	<path fill="#7B9B34" d="M518.596 198.723C523.459 198.118 528.006 198.766 532.823 199.449C533.188 207.122 533.891 213.854 539.834 219.469C548.096 227.274 561.143 228.635 571.959 228.06C578.651 227.705 584.759 226.011 590.987 223.628C591.302 223.736 591.615 223.847 591.931 223.951C594.513 224.799 597.333 225.074 599.991 225.636C605.333 226.729 610.513 228.496 615.409 230.896C641.923 243.637 664.6 277.422 678.048 302.962C679.963 306.6 683.3 311.769 684.051 315.715C643.795 304.043 614.143 276.92 582.561 251.064C582.478 251.27 582.389 251.475 582.311 251.683C581.468 253.921 581.895 257.336 581.666 259.758C581.234 264.33 580.442 269.079 578.942 273.434C572.721 291.492 559.953 305.214 548.617 320.086C545.3 324.438 542.64 329.209 539.388 333.567C539.192 333.867 538.759 334.183 538.489 334.428C537.535 334.303 537.118 333.893 536.426 333.259C519.293 317.561 506.659 295.483 502.881 272.516C501.507 264.165 501.338 255.76 501.024 247.321C495.055 252.592 490.403 259.289 484.542 264.751C467.407 280.716 440.961 295.063 418.026 299.005C404.493 301.332 392.95 299.354 381.74 291.39C390.274 289.148 398.856 288.37 407.048 284.853C417.271 279.221 424.998 270.595 433.091 262.364C439.904 250.39 460.948 227.186 471.941 218.122C487.483 205.936 499.026 200.764 518.596 198.723Z"/>
	<path fill="#BFD175" d="M471.941 218.122C487.483 205.936 499.026 200.764 518.596 198.723C519.231 200.283 519.438 200.633 519.193 202.357C516.01 207.189 502.992 212.155 497.612 215.432C493.418 218.02 489.366 220.832 485.474 223.854C464.561 240.021 436.957 279.302 411.337 284.879C409.766 285.221 408.55 285.542 407.048 284.853C417.271 279.221 424.998 270.595 433.091 262.364C439.904 250.39 460.948 227.186 471.941 218.122Z"/>
	<path fill="#7B9B34" d="M471.941 218.122C471.679 219.126 471.444 220.067 470.842 220.931C468.258 224.638 464.447 227.884 461.468 231.32C454.996 238.785 441.887 257.619 434.224 261.854C433.756 262.113 433.625 262.145 433.091 262.364C439.904 250.39 460.948 227.186 471.941 218.122Z"/>
	<path fill="#4B7532" d="M539.388 333.567C538.21 317.482 549.851 290.241 557.9 276.869C561.561 270.787 574.15 251.881 581.119 250.557C582.02 250.385 581.739 250.447 582.561 251.064C582.478 251.27 582.389 251.475 582.311 251.683C581.468 253.921 581.895 257.336 581.666 259.758C581.234 264.33 580.442 269.079 578.942 273.434C572.721 291.492 559.953 305.214 548.617 320.086C545.3 324.438 542.64 329.209 539.388 333.567Z"/>
	<path fill="#BFD175" d="M520.862 241.185C521.657 241.555 522.312 242.109 522.77 242.869C523.853 244.669 524.188 246.989 524.498 249.04C525.787 257.565 525.929 266.338 526.755 274.927C527.371 281.341 528.78 287.906 529.039 294.306C529.107 295.998 529.057 297.503 528.572 299.131L527.765 299.554L526.578 298.961C520.861 290.429 518.272 278.55 517.133 268.499C516.158 259.894 515.156 248.376 520.862 241.185Z"/>
	<path fill="#F9E9D1" d="M237.695 655.756C234.161 654.815 230.659 653.848 227.276 652.442C215.049 647.336 205.349 637.586 200.305 625.334C195.021 612.282 196.697 597.936 202.217 585.252C208.59 570.609 219.981 558.812 234.913 552.973C236.3 555.862 237.463 558.856 238.676 561.821C240.985 574.746 240.236 591.05 232.304 602.129C229.859 605.544 226.608 608.139 224.881 612.054C225.093 612.06 225.304 612.069 225.515 612.072C236.826 612.213 242.589 607.218 252.334 616.996C255.72 620.393 259.073 628.151 263.358 629.802C264.381 628.945 264.894 628.086 264.997 626.721C265.329 622.328 262.425 616.966 260.092 613.362C254.864 608.097 250.36 605.249 243.455 602.614C246.894 597.103 249.553 591.447 251.578 585.267C260.946 582.705 270.075 581.152 278.993 586.337C285.439 590.085 289.692 596.196 291.491 603.352C294.685 616.053 291.494 631.646 284.697 642.691C281.642 647.656 277.737 652.184 274.053 656.696C281.855 655.991 288.467 654.596 293.863 648.33C298.751 642.655 301.176 635.117 305.39 628.94C307.958 636.409 308.527 642.63 304.949 649.98C298.983 662.237 286.067 671.525 273.395 675.813C265.106 678.618 255.081 679.899 246.957 675.801C243.498 674.057 240.54 670.848 237.847 668.118C248.044 667.419 256.629 666.78 263.947 658.496C264.782 657.55 265.562 656.549 266.339 655.556C257.076 656.616 246.931 657.405 237.695 655.756Z"/>
	<path fill="#C0BCA9" d="M251.578 585.267C260.946 582.705 270.075 581.152 278.993 586.337C285.439 590.085 289.692 596.196 291.491 603.352C294.685 616.053 291.494 631.646 284.697 642.691C281.642 647.656 277.737 652.184 274.053 656.696C281.855 655.991 288.467 654.596 293.863 648.33C298.751 642.655 301.176 635.117 305.39 628.94C307.958 636.409 308.527 642.63 304.949 649.98C298.983 662.237 286.067 671.525 273.395 675.813C265.106 678.618 255.081 679.899 246.957 675.801C243.498 674.057 240.54 670.848 237.847 668.118C248.044 667.419 256.629 666.78 263.947 658.496C264.782 657.55 265.562 656.549 266.339 655.556C257.076 656.616 246.931 657.405 237.695 655.756C244.741 656.039 256.512 650.498 262.238 646.482C271.488 639.992 278.39 629.4 280.099 618.161C280.55 615.193 280.52 611.64 278.599 609.148C277.488 607.707 275.885 606.857 274.068 606.744C269.197 606.444 263.671 610.316 260.092 613.362C254.864 608.097 250.36 605.249 243.455 602.614C246.894 597.103 249.553 591.447 251.578 585.267Z"/>
	<path fill="#C0BCA9" d="M238.676 561.821C240.985 574.746 240.236 591.05 232.304 602.129C229.859 605.544 226.608 608.139 224.881 612.054C224.755 607.898 224.144 604.052 225.109 599.91C226.814 592.599 231.331 586.34 233.749 579.297C235.656 573.74 235.964 566.977 238.676 561.821Z"/>
	<path fill="#7B9B34" d="M620.482 58.8751L620.484 64.6587C620.549 66.4798 620.557 68.3202 620.722 70.1345C621.808 76.0381 624.194 81.3611 627.277 86.4693C632.837 92.7736 638.079 97.5615 645.29 101.867C624.848 108.825 611.864 121.087 602.247 140.441C594.735 155.703 591.049 172.563 591.506 189.568C591.619 194.747 592.329 199.845 592.618 205C587.997 208.264 582.894 211.644 577.27 212.82C569.513 214.491 561.322 215.279 553.443 213.926C550.581 211.837 547.984 209.571 545.375 207.176C546.453 193.249 548.467 179.128 551.754 165.541C553.317 150.763 563.877 120.215 572.645 108.449C574.788 104.037 577.25 99.8608 579.754 95.6504C587.18 81.3407 605.756 65.3199 620.482 58.8751Z"/>
	<path fill="#4B7532" d="M627.277 86.4693C632.837 92.7736 638.079 97.5615 645.29 101.867C624.848 108.825 611.864 121.087 602.247 140.441C594.735 155.703 591.049 172.563 591.506 189.568C591.619 194.747 592.329 199.845 592.618 205C587.997 208.264 582.894 211.644 577.27 212.82C571.457 192.896 570.746 169.248 576.323 149.192C584.197 120.88 602.008 100.631 627.277 86.4693Z"/>
	<path fill="#BFD175" d="M620.482 58.8751L620.484 64.6587C620.549 66.4798 620.557 68.3202 620.722 70.1345C620.532 70.543 620.456 71.0268 620.154 71.36C617.718 74.0392 612.462 76.9541 609.407 79.3065C606.277 81.7164 603.464 84.6944 600.703 87.517C590.256 98.1993 580.671 110.668 573.863 123.979C560.922 149.283 554.566 185.509 553.443 213.926C550.581 211.837 547.984 209.571 545.375 207.176C546.453 193.249 548.467 179.128 551.754 165.541C553.317 150.763 563.877 120.215 572.645 108.449C574.788 104.037 577.25 99.8608 579.754 95.6504C587.18 81.3407 605.756 65.3199 620.482 58.8751Z"/>
	<path fill="#9DB84F" d="M551.754 165.541C553.317 150.763 563.877 120.215 572.645 108.449C572.268 115.325 565.02 128.99 562.495 136.282C559.581 144.693 557.506 153.461 554.171 161.717C553.555 163.241 552.977 164.411 551.754 165.541Z"/>
	<path fill="#9DB84F" d="M620.482 58.8751L620.484 64.6587C619.998 63.896 619.941 63.3166 618.988 63.133C615.557 62.4718 611.194 66.1032 608.6 68.0964C604.664 71.1264 600.912 74.388 597.364 77.864C593.746 81.3947 583.674 94.5352 579.754 95.6504C587.18 81.3407 605.756 65.3199 620.482 58.8751Z"/>
	<path fill="#4B7532" d="M605.568 197.018C642.592 196.879 663.968 204.794 690.523 231.073C696.572 237.058 702.141 243.522 708.221 249.474C726.74 267.603 744.327 272.582 769.503 274.534C759.425 283.7 748.961 289.813 734.972 289.149C706.587 287.801 688.516 258.814 668.528 242.122C663.377 237.821 657.889 234.396 651.885 231.43C675.132 256.479 690.125 287.12 697.44 320.373C693.01 318.885 688.319 317.604 684.051 315.715C683.3 311.769 679.963 306.6 678.048 302.962C664.6 277.422 641.923 243.637 615.409 230.896C610.513 228.496 605.333 226.729 599.991 225.636C597.333 225.074 594.513 224.799 591.931 223.951C591.615 223.847 591.302 223.736 590.987 223.628C597.615 219.249 603.642 214.796 605.371 206.486C606.02 203.365 605.806 200.171 605.568 197.018Z"/>
	<path fill="#F9E9D1" d="M374.67 923.029C376.036 916.434 377.435 910.022 380.755 904.09C387.216 892.544 398.282 884.424 410.968 880.98C430.273 875.737 453.955 881.415 469.511 893.767C473.705 897.098 478.119 903.234 482.523 905.571C483.549 906.116 483.753 906.142 484.814 905.853C485.061 905.27 485.122 905.227 485.187 904.498C485.717 898.541 477.628 889.986 473.874 886.003C476.891 886.692 479.862 887.449 482.836 888.308C497.848 890.355 511.256 891.626 526.188 887.855C530.679 896.87 532.972 906.476 533.68 916.523C513.595 926.889 490.255 929.007 468.033 930.545C459.129 931.162 450.249 931.797 441.316 931.561C418.511 931.72 396.1 932.108 374.67 923.029Z"/>
	<path fill="#C0BCA9" d="M482.836 888.308C497.848 890.355 511.256 891.626 526.188 887.855C530.679 896.87 532.972 906.476 533.68 916.523C513.595 926.889 490.255 929.007 468.033 930.545C459.129 931.162 450.249 931.797 441.316 931.561C445.938 924.501 477.369 926.536 488.227 915.887C493.221 910.988 493.929 904.789 494.043 898.181C490.02 895.248 485.423 892.69 482.836 888.308Z"/>
	<path fill="#F9E9D1" d="M709.883 889.028C723.653 889.061 735.017 893.141 744.866 902.969C753.534 911.617 757.612 921.828 760.641 933.486C751.475 936.647 742.698 938.385 733.071 939.459C703.455 940.931 673.03 941.385 645.157 929.718C642.893 928.951 640.761 927.778 638.62 926.721C637.941 923.036 637.912 919.631 638.414 915.933C638.385 907.466 641 899.847 644.505 892.255C647.842 892.247 651.287 892.208 654.528 891.354C656.283 894.297 656.72 897.698 658.684 900.495C658.308 902.031 657.954 903.236 658.289 904.828C660.215 906.453 662.394 904.674 664.255 903.542C681.745 892.905 689.023 889.524 709.883 889.028Z"/>
	<path fill="#C0BCA9" d="M709.883 889.028C723.653 889.061 735.017 893.141 744.866 902.969C753.534 911.617 757.612 921.828 760.641 933.486C751.475 936.647 742.698 938.385 733.071 939.459C733.41 936.075 733.059 932.428 732.516 929.083C730.749 918.186 725.786 905.537 717.117 898.23C714.816 896.29 711.903 894.854 709.446 893.058C708.801 891.527 709.427 890.592 709.883 889.028Z"/>
	<path fill="#F9E9D1" d="M848.447 485.301C844.899 472.133 842.839 459.745 845.741 446.16C848.086 435.181 854.613 423.428 864.296 417.338C869.102 414.315 875.428 411.977 881.1 413.48C885.754 414.713 888.495 417.987 890.762 421.972C891.764 434.079 887.469 443.559 884.867 455.062C882.213 466.792 883.424 478.305 885.906 489.913C881.67 488.894 877.431 488.029 873.148 487.238C865.07 485.776 856.63 485.657 848.447 485.301Z"/>
	<path fill="#C0BCA9" d="M890.762 421.972C891.764 434.079 887.469 443.559 884.867 455.062C882.213 466.792 883.424 478.305 885.906 489.913C881.67 488.894 877.431 488.029 873.148 487.238C873.069 486.861 872.996 486.482 872.936 486.101C869.508 464.465 877.85 439.299 890.762 421.972Z"/>
	<path fill="#F9E9D1" d="M159.599 599.694C159.318 597.666 158.415 595.516 157.964 593.485C156.58 587.245 155.968 580.844 156.673 574.471C157.336 568.486 159.357 562.668 164.329 558.92C167.967 556.179 173.833 554.014 178.413 554.724C187.325 559.385 190.61 565.892 194.038 574.852C186.199 592.533 182.744 605.18 185.85 624.555C176.524 621.227 165.269 616.623 160.823 606.984C160.24 605.718 160.306 605.094 160.397 603.723C160.5 602.184 160.118 601.098 159.599 599.694Z"/>
	<path fill="#C0BCA9" d="M178.413 554.724C187.325 559.385 190.61 565.892 194.038 574.852C186.199 592.533 182.744 605.18 185.85 624.555C176.524 621.227 165.269 616.623 160.823 606.984C160.24 605.718 160.306 605.094 160.397 603.723C160.5 602.184 160.118 601.098 159.599 599.694C162.666 600.547 165.783 601.177 168.896 601.837C174.695 596.298 180.104 590.557 182.723 582.801C186.284 572.253 183.028 564.148 178.413 554.724Z"/>
	<path fill="#F9E9D1" d="M322.898 579.294L330.66 578.766C330.671 588.375 330.052 597.988 330.122 607.598C330.23 622.385 332.022 636.911 334.763 651.42C333.235 653.978 331.468 656.797 329.319 658.881C324.63 663.43 319.361 663.221 313.305 662.995C314.982 659.679 316.497 656.326 317.958 652.91C320.311 647.217 321.234 641.156 320.344 635.042C318.935 625.362 313.768 618.386 306.109 612.627C305.848 600.153 301.79 591.265 294.387 581.417C303.785 580.286 313.445 580.017 322.898 579.294Z"/>
	<path fill="#C0BCA9" d="M382.008 935.59C413.757 946.414 472.858 942.782 505.338 935.69C515.363 933.501 524.906 930.236 534.498 926.633L534.526 934.962C500.542 953.584 431.348 955.292 393.393 949.408C386.156 947.771 380.623 946.048 374.508 941.779L374.404 931.581L382.008 935.59Z"/>
	<path fill="#F9E9D1" d="M374.404 931.581L382.008 935.59C382.695 938.141 383.456 939.982 385.804 941.399C388.624 943.101 392.73 943.221 395.192 945.295C393.987 946.459 393.458 946.644 393.378 948.439C393.363 948.762 393.388 949.085 393.393 949.408C386.156 947.771 380.623 946.048 374.508 941.779L374.404 931.581Z"/>
	<path fill="#9DB84F" d="M428.557 320.969C430.535 317.096 433.432 312.946 437.006 310.418C444.286 305.269 455.478 302.468 463.646 298.039C472.349 293.319 479.859 286.82 488.672 282.3C489.91 285.354 490.959 288.45 491.996 291.577C489.38 293.542 486.884 295.592 484.409 297.731C485.42 300.774 476.732 329.726 474.817 333.7C463.178 330.364 452.031 328.872 441.031 335.061C439.182 336.102 437.423 337.315 435.637 338.46C436.843 333.214 442.549 326.076 440.965 320.769C436.732 321.358 432.802 321.319 428.557 320.969Z"/>
	<path fill="#4B7532" d="M428.557 320.969C430.535 317.096 433.432 312.946 437.006 310.418C444.286 305.269 455.478 302.468 463.646 298.039C472.349 293.319 479.859 286.82 488.672 282.3C489.91 285.354 490.959 288.45 491.996 291.577C489.38 293.542 486.884 295.592 484.409 297.731C474.658 304.68 464.735 312.493 453.538 316.923C449.415 318.555 445.118 319.337 440.965 320.769C436.732 321.358 432.802 321.319 428.557 320.969Z"/>
	<path fill="#C0BCA9" d="M638.536 936.811C641.427 938.173 644.137 939.901 647.063 941.227C654.223 944.472 662.178 945.923 669.857 947.425C701.098 953.537 731.389 952.837 761.512 941.631L761.446 951.492C756.588 954.633 751.16 956.42 745.536 957.631C712.556 964.731 667.602 963.532 638.896 944.823C638.594 942.156 638.582 939.491 638.536 936.811Z"/>
	<path fill="#4B7532" d="M631.211 57.9971C641.43 58.7655 649.591 61.8151 656.34 69.7742C662.755 77.3393 665.442 86.6267 666.261 96.3513C657.813 94.5039 645.978 92.9528 640.39 85.5184C635.097 80.9944 630.77 73.4835 629.679 66.5693C629.17 63.3371 629.278 60.6926 631.211 57.9971Z"/>
	<path fill="#55802F" d="M640.39 85.5184C635.097 80.9944 630.77 73.4835 629.679 66.5693C629.17 63.3371 629.278 60.6926 631.211 57.9971C636.57 63.9287 641.166 76.5186 641.22 84.4948C640.964 84.831 640.711 85.2462 640.39 85.5184Z"/>
	<path fill="#F9E9D1" d="M477.194 855.475C477.622 856.638 478.078 857.973 478.836 858.976C483.274 864.852 496.821 864.524 503.527 865.076C502.924 868.336 501.531 877.056 498.663 878.958C498.494 879.07 498.298 879.135 498.115 879.224C489.265 878.574 479.391 877.959 471.284 874.061C468.679 872.808 465.92 870.881 465.029 867.98C464.365 865.819 464.817 863.205 465.934 861.266C468.156 857.411 473.265 856.584 477.194 855.475Z"/>
	<path fill="#F9E9D1" d="M649.422 862.072C650.122 863.851 650.797 865.597 652.427 866.73C658.89 871.221 671.929 867.512 679.118 866.204C679.324 867.442 679.364 867.557 678.566 868.614C674.787 873.614 667.424 878.111 662.545 882.184C657.802 883.782 649.961 882.966 645.439 881.332C642.365 880.221 639.211 878.187 637.905 875.057C637.148 873.242 637.165 871.31 637.967 869.514C639.919 865.143 645.276 863.516 649.422 862.072Z"/>
	<path fill="#C0BCA9" d="M685.37 864.702C686.308 862.324 686.965 859.898 689.565 858.86C691.121 858.238 692.787 858.39 694.271 859.128C697.419 860.692 699.045 863.375 700.413 866.467C700.045 868.982 699.701 871.482 699.087 873.952C685.539 876.858 669.339 882.048 661.513 894.511C660.312 896.424 659.412 898.361 658.684 900.495C656.72 897.698 656.283 894.297 654.528 891.354C655.181 891.172 655.813 890.989 656.448 890.749C659.82 889.474 666.307 886.819 667.84 883.432L667.458 882.531C665.839 881.733 664.278 882.039 662.545 882.184C667.424 878.111 674.787 873.614 678.566 868.614C679.364 867.557 679.324 867.442 679.118 866.204C681.204 865.719 683.307 865.274 685.37 864.702Z"/>
	<path fill="#C0BCA9" d="M503.527 865.076C506.545 865.24 510.592 866.007 513.095 863.912C514.534 862.707 515.012 860.787 515.589 859.078C519.491 859.813 524.546 860.338 527.065 863.835C528.232 865.454 528.429 867.466 528.1 869.392C527.694 871.771 526.439 874.009 525.357 876.141C517.655 878.213 506.099 881.17 498.115 879.224C498.298 879.135 498.494 879.07 498.663 878.958C501.531 877.056 502.924 868.336 503.527 865.076Z"/>
	<path fill="#F9E9D1" d="M322.903 534.226C326.471 533.113 330.274 535.06 331.457 538.606C332.64 542.151 330.767 545.991 327.246 547.243C324.906 548.075 322.299 547.577 320.429 545.942C318.56 544.307 317.72 541.789 318.233 539.359C318.746 536.929 320.533 534.966 322.903 534.226Z"/>
	<path fill="#2E5424" d="M794.433 629.131L803.056 637.881L801.653 644.604C798.884 642.727 795.19 640.805 792.8 638.541C792.965 635.142 793.248 632.364 794.433 629.131Z"/>
	<path fill="#F9E9D1" d="M817.185 644.088C819.2 644.583 821.211 645.098 823.217 645.633C823.926 647.73 826.547 653.548 825.771 655.246C822.403 654.2 819.12 652.853 815.829 651.586C816.337 649.103 816.736 646.583 817.185 644.088Z"/>
</svg>
