<?xml version="1.0" encoding="utf-8" ?>
<svg xmlns="http://www.w3.org/2000/svg" xmlns:xlink="http://www.w3.org/1999/xlink" width="1024" height="1024">
	<path fill="#135126" d="M211.179 500.093C213.576 420.358 247.1 344.732 304.571 289.41C362.131 234.874 438.776 205.075 518.057 206.408C600.209 208.11 672.218 240.555 728.887 299.799C784.069 358.22 814.222 435.9 812.906 516.251C810.816 602.438 776.79 680.671 714.113 740.055C704.816 748.864 694.37 756.79 683.88 764.119C631.848 800.729 569.418 819.625 505.818 818.016C421.209 815.361 348.771 782.541 290.885 720.905C247.385 674.588 220.262 612.476 213.247 549.541C212.207 540.218 210.825 530.256 211.075 520.867C211.084 520.549 211.104 520.231 211.119 519.913C210.822 513.326 210.958 506.682 211.179 500.093ZM516.019 786.306C526.393 785.76 536.776 785.299 547.076 783.878C610.041 775.801 668.113 745.694 711.001 698.892C761.372 643.212 785.258 568.523 781.151 494.011C776.832 422.367 744.698 355.245 691.599 306.954C641.495 262.289 575.294 236.015 507.77 238.222C492.311 238.963 477.244 240.16 462 242.997C403.779 253.949 350.74 283.646 310.974 327.557C263.286 380.529 238.694 450.333 242.651 521.498C246.261 596.36 275.258 666.789 331.507 717.493C380.283 761.461 450.066 788.84 516.019 786.306Z"/>
	<path fill="#135126" d="M511.683 530.584C531.612 521.985 546.82 504.749 557.488 486.39C570.879 492.914 586.768 497.186 601.727 496.175C607.676 495.772 613.558 494.593 619.45 493.716C636.477 536.206 656.287 583.187 643.607 629.657C636.943 654.04 621.997 675.341 601.336 689.902C596.004 693.629 590.047 696.604 584.384 699.811C581.798 700.789 579.294 702.045 576.748 703.132C537.304 719.959 489.178 721.778 449.2 705.527C420.623 693.911 396.403 673.466 384.338 644.585C378.096 629.643 376.114 614.73 376.307 598.649C376.758 560.908 389.698 528.592 403.686 494.149C425.375 497.901 446.163 497.363 465.846 486.461C467.376 487.041 472.369 496.175 473.955 498.481C483.453 512.284 496.252 523.827 511.683 530.584Z"/>
	<path fill="#135126" d="M565.349 298.665C566.176 298.516 565.765 298.57 566.814 298.496C573.511 298.022 580.655 298.308 585.91 303.113C589.486 306.383 591.477 311.1 591.621 315.912C591.717 319.122 590.909 322.284 589.156 324.986C582.801 334.778 569.7 331.818 559.991 335.384C554.022 337.577 548.658 341.837 544.329 346.423C536.499 354.717 528.153 369.914 528.522 381.578C535.073 384.658 543.037 385.876 550.184 389.204C584.939 405.385 605.779 441.51 618.271 476.107C600.615 481.332 583.611 480.218 567.091 472.041C563.187 470.109 558.605 466.394 554.443 465.5C552.844 465.157 551.073 465.195 549.854 466.42C547.134 469.153 545.37 474.244 543.528 477.643C537.78 488.249 529.185 499.227 519.112 506.027L518.512 506.428L511.509 511.087C498.24 504.311 487.583 490.29 480.547 477.504C478.927 474.561 478.162 471.055 476.28 468.289C474.491 465.659 469.846 465.518 467.087 466.465C462.461 468.052 457.797 471.961 453.359 474.222C438.539 481.77 420.331 480.127 404.612 476.712C408.364 461.752 416.273 445.957 424.565 433.061C440.786 407.832 462.712 389.169 492.488 382.61C494.598 377.907 495.203 372.364 496.496 367.377C499.937 354.091 505.535 341.59 513.689 330.518C526.196 313.535 544.369 301.775 565.349 298.665Z"/>
</svg>
